<svg width="24" height="24" viewBox="0 0 24 24" fill="none" xmlns="http://www.w3.org/2000/svg">
<path d="M9.02884 15.3503L8.25677 6.6875H16.7433L15.9702 15.349L12.4949 16.3125L9.02884 15.3503Z" fill="#1572B6"/>
<path d="M12.5 15.5762L15.3084 14.7976L15.9691 7.39597H12.5V15.5762Z" fill="#33A9DC"/>
<path d="M12.5 10.5344H13.9059L14.0029 9.44643H12.5V8.3839H15.1641L15.1386 8.66887L14.8777 11.5969H12.5V10.5344V10.5344Z" fill="white"/>
<path d="M12.5066 13.2937L12.5017 13.2951L11.3186 12.9754L11.2429 12.128H10.1763L10.3251 13.7962L12.5014 14.4006L12.5066 14.3992V13.2937V13.2937Z" fill="#EBEBEB"/>
<path d="M13.8155 11.5519L13.6877 12.9747L12.5027 13.2944V14.3999L14.6807 13.7962L14.6969 13.6168L14.8815 11.5519H13.8155V11.5519Z" fill="white"/>
<path d="M12.5038 8.3839V9.44643H9.93732L9.91601 9.20753L9.86754 8.66887L9.8421 8.3839H12.5038V8.3839ZM12.5 10.5344V11.5969H11.3316L11.3103 11.358L11.2621 10.8194L11.2367 10.5344H12.5V10.5344Z" fill="#EBEBEB"/>
<rect x="0.1" y="0.1" width="23.8" height="23.8" stroke="#EAE6E0" stroke-width="0.2"/>
</svg>
