<svg width="20" height="20" viewBox="0 0 20 20" fill="none" xmlns="http://www.w3.org/2000/svg">
<g clip-path="url(#clip0_85_128)">
<path d="M19.1666 0.833307C19.1666 0.833307 13.7266 0.45164 11.6666 2.49997C11.6475 2.53081 8.33329 5.83331 8.33329 5.83331L4.16663 6.66664L1.66663 8.33331L8.33329 11.6666L11.6666 18.3333L13.3333 15.8333L14.1666 11.6666C14.1666 11.6666 17.4691 8.35247 17.5 8.33331C19.5483 6.27331 19.1666 0.833307 19.1666 0.833307ZM14.1666 6.66664C13.9456 6.66664 13.7336 6.57884 13.5774 6.42256C13.4211 6.26628 13.3333 6.05432 13.3333 5.83331C13.3333 5.61229 13.4211 5.40033 13.5774 5.24405C13.7336 5.08777 13.9456 4.99997 14.1666 4.99997C14.3876 4.99997 14.5996 5.08777 14.7559 5.24405C14.9122 5.40033 15 5.61229 15 5.83331C15 6.05432 14.9122 6.26628 14.7559 6.42256C14.5996 6.57884 14.3876 6.66664 14.1666 6.66664ZM5.83329 14.1666C4.99996 13.3333 3.33329 13.3333 2.49996 14.1666C1.66663 15 1.66663 18.3333 1.66663 18.3333C1.66663 18.3333 4.99996 18.3333 5.83329 17.5C6.66663 16.6666 6.66663 15 5.83329 14.1666Z" stroke="#072A5F" stroke-width="2"/>
</g>
<defs>
<clipPath id="clip0_85_128">
<rect width="20" height="20" fill="white"/>
</clipPath>
</defs>
</svg>
