<svg width="20" height="20" viewBox="0 0 20 20" fill="none" xmlns="http://www.w3.org/2000/svg">
<path d="M12.2269 12.6985C13.2284 12.4904 14.1372 12.1295 14.8437 11.5996C16.0501 10.6948 16.6667 9.29731 16.6667 7.9166C16.6667 6.94798 16.2995 6.04373 15.6637 5.27781C15.3095 4.85102 16.3457 1.6666 15.425 2.09547C14.5044 2.52435 13.1545 3.47364 12.447 3.26414C11.6894 3.03983 10.8639 2.9166 10 2.9166C9.24971 2.9166 8.52833 3.00957 7.85529 3.18098C6.87696 3.43013 5.94133 2.49993 5.00004 2.09547C4.05873 1.69101 4.57237 4.98465 4.29279 5.33098C3.68387 6.08544 3.33337 6.97031 3.33337 7.9166C3.33337 9.29731 4.07957 10.6948 5.286 11.5996C6.08967 12.2024 7.09754 12.5865 8.22508 12.7758" stroke="#072A5F" stroke-width="2" stroke-linecap="round"/>
<path d="M8.2249 12.7758C7.74219 13.307 7.50085 13.8115 7.50085 14.2893C7.50085 14.767 7.50085 15.9776 7.50085 17.921" stroke="#072A5F" stroke-width="2" stroke-linecap="round"/>
<path d="M12.2269 12.6985C12.6843 13.2989 12.913 13.8379 12.913 14.3156C12.913 14.7934 12.913 15.9952 12.913 17.9211" stroke="#072A5F" stroke-width="2" stroke-linecap="round"/>
<path d="M2.5 13.0064C2.87453 13.0522 3.15231 13.2244 3.33333 13.523C3.60487 13.9709 4.61425 15.6325 5.76046 15.6325C6.52463 15.6325 7.10479 15.6325 7.501 15.6325" stroke="#072A5F" stroke-width="2" stroke-linecap="round"/>
</svg>
