<svg width="24" height="24" viewBox="0 0 24 24" fill="none" xmlns="http://www.w3.org/2000/svg">
<g clip-path="url(#clip0_134_47)">
<path d="M16.0442 10.2381C15.9271 10.1971 15.8091 10.1591 15.6901 10.1242C15.7101 10.0408 15.7285 9.9585 15.7448 9.87762C16.0129 8.54951 15.8376 7.47955 15.2391 7.12727C14.6653 6.78955 13.7268 7.1417 12.779 7.98368C12.6856 8.06681 12.5942 8.15233 12.5051 8.24017C12.4454 8.18176 12.3846 8.12448 12.3228 8.06837C11.3295 7.16811 10.3338 6.78868 9.73595 7.14197C9.16262 7.48074 8.99285 8.48657 9.23416 9.74526C9.25817 9.86992 9.28528 9.99393 9.31546 10.1172C9.17452 10.1581 9.03852 10.2016 8.90837 10.2479C7.74375 10.6624 7 11.3119 7 11.9856C7 12.6814 7.79845 13.3794 9.01145 13.8026C9.10979 13.8367 9.20895 13.8684 9.30884 13.8975C9.2764 14.0303 9.2476 14.1639 9.22247 14.2983C8.99242 15.5352 9.17207 16.5172 9.74386 16.8539C10.3344 17.2015 11.3256 16.8442 12.2907 15.983C12.369 15.913 12.4455 15.841 12.5203 15.7671C12.6169 15.8622 12.716 15.9546 12.8176 16.044C13.7525 16.8652 14.6759 17.1967 15.2471 16.8592C15.8371 16.5106 16.0289 15.4556 15.7799 14.172C15.7603 14.0715 15.7383 13.9714 15.7139 13.8719C15.7835 13.8509 15.8519 13.8292 15.9185 13.8067C17.1795 13.3802 18 12.6907 18 11.9856C18 11.3094 17.2322 10.6555 16.0442 10.2381V10.2381ZM15.7707 13.3514C15.7105 13.3717 15.6488 13.3913 15.5859 13.4104C15.4467 12.9605 15.2589 12.4822 15.0289 11.9879C15.2483 11.5055 15.429 11.0332 15.5643 10.5863C15.6768 10.6196 15.786 10.6546 15.8913 10.6916C16.9092 11.0493 17.5301 11.5781 17.5301 11.9856C17.5301 12.4196 16.8595 12.9831 15.7707 13.3514V13.3514ZM15.3189 14.2652C15.429 14.8327 15.4447 15.3459 15.3718 15.7471C15.3063 16.1075 15.1745 16.3478 15.0116 16.4441C14.665 16.6489 13.9236 16.3827 13.1241 15.6804C13.0296 15.5972 12.9374 15.5114 12.8475 15.423C13.1575 15.077 13.4673 14.6747 13.7696 14.228C14.3014 14.1798 14.8038 14.101 15.2594 13.9935C15.2813 14.0836 15.3012 14.1742 15.3189 14.2652V14.2652ZM10.7501 16.4087C10.4115 16.5308 10.1417 16.5343 9.97864 16.4383C9.63166 16.2341 9.48742 15.4455 9.68417 14.3878C9.70756 14.2628 9.73434 14.1385 9.76448 14.015C10.2151 14.1168 10.7138 14.1899 11.2468 14.2341C11.5512 14.6712 11.8699 15.073 12.1911 15.4249C12.1228 15.4923 12.053 15.558 11.9815 15.6219C11.5547 16.0027 11.1271 16.2728 10.7501 16.4087V16.4087ZM9.16348 13.3487C8.6271 13.1616 8.18413 12.9184 7.88052 12.653C7.60766 12.4145 7.46995 12.1777 7.46995 11.9856C7.46995 11.5767 8.06709 11.0553 9.06306 10.7008C9.18393 10.6578 9.31043 10.6173 9.4417 10.5792C9.57937 11.0362 9.75993 11.5141 9.97782 11.9973C9.75709 12.4876 9.57396 12.9731 9.43495 13.4355C9.34378 13.4089 9.25326 13.3799 9.16348 13.3487V13.3487ZM9.69534 9.65311C9.48862 8.57473 9.62591 7.76126 9.97142 7.5571C10.3394 7.33964 11.1531 7.64969 12.0108 8.42705C12.0668 8.47786 12.1218 8.5297 12.1759 8.58254C11.8563 8.93284 11.5405 9.33166 11.2388 9.76622C10.7215 9.81517 10.2263 9.89376 9.77097 9.99907C9.74292 9.88443 9.7177 9.76909 9.69534 9.65315V9.65311ZM14.4403 10.8491C14.3327 10.6595 14.2212 10.4722 14.1057 10.2875C14.4567 10.3328 14.793 10.393 15.1088 10.4665C15.014 10.7767 14.8958 11.1009 14.7567 11.4334C14.6551 11.2365 14.5495 11.0417 14.4403 10.8491V10.8491ZM12.5053 8.92534C12.722 9.16504 12.9391 9.43262 13.1526 9.72297C12.7195 9.7021 12.2856 9.70201 11.8525 9.72271C12.0662 9.43504 12.2852 9.1678 12.5053 8.92534ZM10.5579 10.8524C10.45 11.0434 10.3464 11.237 10.2474 11.433C10.1106 11.1017 9.99346 10.776 9.89786 10.4614C10.2117 10.3897 10.5464 10.3311 10.8951 10.2867C10.7784 10.4725 10.666 10.6611 10.5579 10.8523V10.8524ZM10.9051 13.7187C10.5448 13.6776 10.2051 13.6221 9.89137 13.5523C9.98848 13.2321 10.1081 12.8995 10.2479 12.5611C10.3474 12.7572 10.4514 12.9509 10.5597 13.1421C10.6712 13.3385 10.7866 13.531 10.9051 13.7187ZM12.5183 15.0796C12.2955 14.8344 12.0734 14.563 11.8564 14.2712C12.067 14.2796 12.2818 14.2839 12.5 14.2839C12.7242 14.2839 12.9458 14.2788 13.164 14.2689C12.9498 14.566 12.7335 14.8377 12.5183 15.0796ZM14.7611 12.5438C14.9082 12.8859 15.0321 13.2168 15.1305 13.5315C14.8116 13.6058 14.4672 13.6657 14.1044 13.7101C14.2207 13.5219 14.3333 13.3315 14.4421 13.1388C14.5528 12.9429 14.6591 12.7445 14.7611 12.5438V12.5438ZM14.0351 12.8991C13.8684 13.1946 13.6924 13.4844 13.5074 13.7682C13.1721 13.7924 12.8361 13.8045 12.5 13.8043C12.1577 13.8043 11.8247 13.7934 11.5041 13.7722C11.3142 13.4891 11.1348 13.1987 10.9664 12.9017H10.9664C10.7988 12.6064 10.6423 12.3046 10.4971 11.9971C10.6419 11.6895 10.798 11.3875 10.965 11.0919L10.965 11.092C11.132 10.7963 11.3099 10.5072 11.4984 10.2253C11.8255 10.2 12.1609 10.1868 12.5 10.1868H12.5C12.8406 10.1868 13.1765 10.2001 13.5035 10.2256C13.6901 10.507 13.8668 10.7952 14.0335 11.0894C14.2011 11.3843 14.3593 11.6848 14.5077 11.9903C14.3608 12.2988 14.2031 12.602 14.0351 12.8991V12.8991ZM15.0044 7.5428C15.3728 7.75964 15.516 8.63407 15.2846 9.78078C15.2698 9.85394 15.2532 9.92846 15.2352 10.004C14.7788 9.89648 14.2832 9.81653 13.7644 9.76683C13.4621 9.32749 13.1489 8.92806 12.8345 8.58227C12.9169 8.5012 13.0013 8.42223 13.0875 8.34543C13.8996 7.62407 14.6586 7.33925 15.0044 7.5428V7.5428ZM12.5 10.983C13.0425 10.983 13.4823 11.4319 13.4823 11.9856C13.4823 12.5393 13.0425 12.9882 12.5 12.9882C11.9575 12.9882 11.5177 12.5393 11.5177 11.9856C11.5177 11.4319 11.9575 10.983 12.5 10.983V10.983Z" fill="#00D8FF"/>
</g>
<rect x="0.1" y="0.1" width="23.8" height="23.8" stroke="#EAE6E0" stroke-width="0.2"/>
<defs>
<clipPath id="clip0_134_47">
<rect width="11" height="10" fill="white" transform="translate(7 7)"/>
</clipPath>
</defs>
</svg>
