<svg width="50" height="31" viewBox="0 0 50 31" fill="none" xmlns="http://www.w3.org/2000/svg">
<g clip-path="url(#clip0_5_708)">
<path d="M25 0C18.3334 0 14.1666 3.43556 12.5 10.3065C15 6.87093 17.9166 5.58262 21.25 6.44156C23.1518 6.93152 24.5111 8.35369 26.0158 9.92765C28.467 12.492 31.3037 15.4597 37.5 15.4597C44.1666 15.4597 48.3334 12.0242 50 5.15325C47.5 8.58881 44.5834 9.87712 41.25 9.01818C39.3482 8.52822 37.9889 7.10604 36.4842 5.53209C34.033 2.96775 31.1963 0 25 0ZM12.5 15.4597C5.8334 15.4597 1.6666 18.8953 0 25.7662C2.5 22.3307 5.4166 21.0424 8.75 21.9013C10.6518 22.3913 12.0111 23.8134 13.5158 25.3874C15.967 27.9517 18.8037 30.9195 25 30.9195C31.6666 30.9195 35.8334 27.4839 37.5 20.613C35 24.0486 32.0834 25.3369 28.75 24.4779C26.8482 23.988 25.4889 22.5658 23.9842 20.9918C21.533 18.4275 18.6963 15.4597 12.5 15.4597Z" fill="url(#paint0_linear_5_708)"/>
</g>
<defs>
<linearGradient id="paint0_linear_5_708" x1="-1.389" y1="9.89423" x2="42.4348" y2="34.4109" gradientUnits="userSpaceOnUse">
<stop stop-color="#2298BD"/>
<stop offset="1" stop-color="#0ED7B5"/>
</linearGradient>
<clipPath id="clip0_5_708">
<rect width="50" height="31" fill="white"/>
</clipPath>
</defs>
</svg>
