<svg width="23" height="24" viewBox="0 0 23 24" fill="none" xmlns="http://www.w3.org/2000/svg">
<mask id="mask0_10_10" style="mask-type:alpha" maskUnits="userSpaceOnUse" x="0" y="0" width="23" height="24">
<path d="M0 0.545456H23V23.5455H0V0.545456Z" fill="white"/>
</mask>
<g mask="url(#mask0_10_10)">
<path fill-rule="evenodd" clip-rule="evenodd" d="M16.6894 14.3282C16.4038 14.1854 15.0037 13.4973 14.743 13.4015C14.4823 13.3066 14.2926 13.2597 14.1019 13.5452C13.9121 13.8289 13.3668 14.471 13.201 14.6607C13.0343 14.8515 12.8685 14.8745 12.5839 14.7326C12.2992 14.5889 11.3812 14.2889 10.2935 13.3191C9.44725 12.5639 8.87513 11.6315 8.70933 11.3459C8.54354 11.0612 8.69113 10.907 8.83392 10.7651C8.96233 10.6377 9.11854 10.4326 9.26133 10.2668C9.40412 10.1 9.45108 9.9812 9.54596 9.7905C9.64179 9.60075 9.59387 9.43495 9.522 9.29216C9.45108 9.14937 8.88183 7.74733 8.64417 7.17712C8.41321 6.62225 8.17842 6.69795 8.004 6.68837C7.83725 6.6807 7.6475 6.67879 7.45775 6.67879C7.268 6.67879 6.95942 6.7497 6.69875 7.03529C6.43712 7.31991 5.70208 8.00895 5.70208 9.411C5.70208 10.8121 6.72175 12.1662 6.86454 12.3569C7.00733 12.5467 8.87225 15.4236 11.729 16.657C12.4095 16.9502 12.9394 17.1256 13.3525 17.2559C14.0348 17.4735 14.6558 17.4428 15.1465 17.369C15.6927 17.2875 16.8312 16.68 17.0689 16.0149C17.3056 15.3498 17.3056 14.7796 17.2347 14.6607C17.1637 14.5419 16.974 14.471 16.6884 14.3282H16.6894ZM11.4933 21.4227H11.4895C9.79266 21.4231 8.12702 20.9669 6.66712 20.1022L6.32212 19.8971L2.73604 20.8382L3.69342 17.3422L3.46821 16.9837C2.51959 15.4737 2.01757 13.7262 2.02017 11.9429C2.02208 6.72 6.27133 2.47075 11.4971 2.47075C14.0271 2.47075 16.4057 3.45783 18.194 5.248C19.076 6.12639 19.7751 7.17095 20.2508 8.32127C20.7265 9.47159 20.9694 10.7048 20.9655 11.9496C20.9635 17.1725 16.7143 21.4227 11.4933 21.4227V21.4227ZM19.5548 3.88812C18.4989 2.82526 17.2426 1.98251 15.8586 1.40872C14.4746 0.834932 12.9905 0.541509 11.4923 0.545454C5.21142 0.545454 0.09775 5.65816 0.0958333 11.942C0.0929229 13.9418 0.617526 15.9069 1.61671 17.6392L0 23.5455L6.04133 21.9604C7.71255 22.8709 9.58534 23.348 11.4885 23.348H11.4933C17.7742 23.348 22.8879 18.2353 22.8898 11.9506C22.8944 10.453 22.6021 8.9693 22.0296 7.5854C21.4572 6.20151 20.616 4.94485 19.5548 3.88812" fill="white"/>
</g>
</svg>
