<svg width="43" height="43" viewBox="0 0 43 43" fill="none" xmlns="http://www.w3.org/2000/svg">
<path d="M7.93078 36.5513L4.91138 2.6875H38.0886L35.0651 36.546L21.4798 40.3125L7.93078 36.5513Z" fill="#E44F26"/>
<path d="M21.5 37.4342L32.4784 34.3906L35.0611 5.45697H21.5V37.4342Z" fill="#F1662A"/>
<path d="M21.5 18.0156H16.0041L15.6251 13.7627H21.5V9.60913H11.0859L11.1854 10.7244L12.2053 22.1692H21.5V18.0156V18.0156ZM21.5 28.8019L21.4812 28.8073L16.856 27.5589L16.5604 24.2466H12.3907L12.9726 30.7665L21.4812 33.1288L21.5 33.1234V28.8019Z" fill="#EBEBEB"/>
<path d="M21.4852 18.0156V22.1692H26.5995L26.1185 27.5563L21.4852 28.8059V33.1274L30.0006 30.7665L30.0624 30.065L31.0379 19.1309L31.1401 18.0156H21.4852V18.0156ZM21.4852 9.60913V13.7627H31.5177L31.601 12.8301L31.7904 10.7244L31.8899 9.60913H21.4852V9.60913Z" fill="white"/>
</svg>
