<svg width="24" height="24" viewBox="0 0 24 24" fill="none" xmlns="http://www.w3.org/2000/svg">
<path d="M10.64 1.127L2.48499 9.282C2.12784 9.63881 1.84451 10.0625 1.6512 10.5289C1.4579 10.9953 1.3584 11.4952 1.3584 12C1.3584 12.5048 1.4579 13.0047 1.6512 13.4711C1.84451 13.9375 2.12784 14.3612 2.48499 14.718L10.64 22.873C10.9968 23.2302 11.4205 23.5135 11.8869 23.7068C12.3532 23.9001 12.8531 23.9996 13.358 23.9996C13.8628 23.9996 14.3627 23.9001 14.8291 23.7068C15.2955 23.5135 15.7192 23.2302 16.076 22.873L18.796 20.155L16.076 17.437L13.358 20.155L5.20299 12L13.358 3.845L18.795 9.282L13.358 14.718L16.076 17.438L21.513 12C21.8703 11.6432 22.1537 11.2194 22.3471 10.7529C22.5405 10.2865 22.6401 9.78647 22.6401 9.2815C22.6401 8.77654 22.5405 8.27652 22.3471 7.81006C22.1537 7.34359 21.8703 6.91983 21.513 6.563L16.065 1.127C15.7093 0.76983 15.2866 0.486418 14.8211 0.293033C14.3556 0.0996484 13.8565 9.91821e-05 13.3525 9.91821e-05C12.8484 9.91821e-05 12.3493 0.0996484 11.8839 0.293033C11.4184 0.486418 10.9957 0.76983 10.64 1.127V1.127Z" fill="#F8F8F8"/>
</svg>
