<svg width="39" height="39" viewBox="0 0 39 39" fill="none" xmlns="http://www.w3.org/2000/svg">
<path d="M7.19306 33.1512L4.45575 2.4375H34.5442L31.8033 33.1463L19.4817 36.5625L7.19306 33.1512Z" fill="#1572B6"/>
<path d="M19.5 33.9519L29.4572 31.1915L31.7996 4.94934H19.5V33.9519Z" fill="#33A9DC"/>
<path d="M19.5 16.0765H24.4847L24.8284 12.2192H19.5V8.45203H28.9453L28.8551 9.46237L27.9301 19.8437H19.5V16.0765V16.0765Z" fill="white"/>
<path d="M19.5231 25.8595L19.5061 25.8643L15.3111 24.7309L15.043 21.7267H11.2612L11.7889 27.6413L19.5049 29.7838L19.5231 29.779V25.8595V25.8595Z" fill="#EBEBEB"/>
<path d="M24.1641 19.684L23.7108 24.7284L19.5097 25.8619V29.7814L27.2317 27.6412L27.289 27.0051L27.9435 19.684H24.1641V19.684Z" fill="white"/>
<path d="M19.5134 8.45203V12.2192H10.4142L10.3386 11.3722L10.1668 9.46237L10.0766 8.45203H19.5134V8.45203ZM19.5 16.0765V19.8437H15.3574L15.2819 18.9967L15.1113 17.0869L15.0211 16.0765H19.5V16.0765Z" fill="#EBEBEB"/>
</svg>
