<svg width="65" height="45" viewBox="0 0 65 45" fill="none" xmlns="http://www.w3.org/2000/svg">
<g clip-path="url(#clip0_63_224)">
<path d="M64.3859 17.033H64.3683L54.2962 21.3441L40.5155 27.2427C40.4616 27.2654 40.4039 27.2772 40.3454 27.2775C40.287 27.2778 40.2291 27.2666 40.175 27.2444L25.9574 21.3318L15.6378 17.04L15.6221 17.033H15.6045C15.4417 17.0331 15.2856 17.0981 15.1704 17.2135C15.0553 17.3289 14.9905 17.4854 14.9904 17.6486V44.3843C14.9905 44.5475 15.0553 44.704 15.1704 44.8194C15.2856 44.9348 15.4417 44.9998 15.6045 44.9999H64.3859C64.5487 44.9998 64.7048 44.9348 64.8199 44.8194C64.9351 44.704 64.9998 44.5475 65 44.3843V17.6486C64.9998 17.4854 64.9351 17.3289 64.8199 17.2135C64.7048 17.0981 64.5487 17.0331 64.3859 17.033Z" fill="white"/>
<path d="M64.5612 17.2089C64.5433 17.2089 64.5258 17.2034 64.5112 17.1931L40.2469 0.254349C40.1731 0.203041 40.0853 0.175621 39.9955 0.175774C39.9056 0.175928 39.818 0.203647 39.7443 0.255207L15.6549 17.193C15.6454 17.1996 15.6348 17.2043 15.6235 17.2068C15.6123 17.2093 15.6007 17.2096 15.5893 17.2076C15.578 17.2056 15.5671 17.2014 15.5574 17.1952C15.5477 17.189 15.5393 17.1809 15.5326 17.1715C15.526 17.162 15.5213 17.1513 15.5188 17.1401C15.5163 17.1288 15.5161 17.1171 15.518 17.1058C15.52 17.0944 15.5242 17.0835 15.5304 17.0738C15.5366 17.064 15.5447 17.0556 15.5541 17.0489L39.6436 0.111178C39.7467 0.0390047 39.8694 0.000208048 39.9952 8.34399e-07C40.121 -0.000206379 40.2438 0.0381854 40.3472 0.110018L64.6114 17.0488C64.6268 17.0595 64.6383 17.0748 64.6443 17.0925C64.6504 17.1103 64.6506 17.1295 64.645 17.1473C64.6394 17.1652 64.6282 17.1808 64.6132 17.1919C64.5981 17.2029 64.5799 17.2089 64.5612 17.2089L64.5612 17.2089Z" fill="#3F3D56"/>
<path d="M17.0315 17.8093L40.0194 0.731567L63.1817 19.0244L41.2038 32.0845L29.2717 29.3581L17.0315 17.8093Z" fill="#E6E6E6"/>
<path d="M30.2789 40.1512H18.9222C18.8525 40.1513 18.7834 40.1376 18.719 40.1109C18.6545 40.0842 18.596 40.0451 18.5466 39.9957C18.4973 39.9463 18.4581 39.8876 18.4314 39.8231C18.4047 39.7585 18.391 39.6893 18.391 39.6194C18.391 39.5495 18.4047 39.4803 18.4314 39.4157C18.4581 39.3511 18.4973 39.2925 18.5466 39.2431C18.596 39.1937 18.6545 39.1545 18.719 39.1278C18.7834 39.1011 18.8525 39.0874 18.9222 39.0875H30.2789C30.3486 39.0874 30.4177 39.1011 30.4821 39.1278C30.5466 39.1545 30.6051 39.1937 30.6545 39.2431C30.7038 39.2925 30.743 39.3511 30.7697 39.4157C30.7964 39.4803 30.8101 39.5495 30.8101 39.6194C30.8101 39.6893 30.7964 39.7585 30.7697 39.8231C30.743 39.8876 30.7038 39.9463 30.6545 39.9957C30.6051 40.0451 30.5466 40.0842 30.4821 40.1109C30.4177 40.1376 30.3486 40.1513 30.2789 40.1512Z" fill="#EB4444"/>
<path d="M22.9967 37.8646H18.9222C18.8525 37.8647 18.7834 37.851 18.719 37.8243C18.6545 37.7976 18.596 37.7585 18.5466 37.7091C18.4973 37.6597 18.4581 37.601 18.4314 37.5364C18.4047 37.4719 18.391 37.4026 18.391 37.3327C18.391 37.2628 18.4047 37.1936 18.4314 37.1291C18.4581 37.0645 18.4973 37.0058 18.5466 36.9564C18.596 36.907 18.6545 36.8679 18.719 36.8412C18.7834 36.8145 18.8525 36.8008 18.9222 36.8009H22.9967C23.0665 36.8008 23.1355 36.8145 23.2 36.8412C23.2644 36.8679 23.323 36.907 23.3724 36.9564C23.4217 37.0058 23.4608 37.0645 23.4875 37.1291C23.5143 37.1936 23.528 37.2628 23.528 37.3327C23.528 37.4026 23.5143 37.4719 23.4875 37.5364C23.4608 37.601 23.4217 37.6597 23.3724 37.7091C23.323 37.7585 23.2644 37.7976 23.2 37.8243C23.1355 37.851 23.0665 37.8647 22.9967 37.8646Z" fill="#EB4444"/>
<path d="M40.3427 27.3214C40.2564 27.3215 40.1709 27.3047 40.0909 27.272L25.9136 21.3753V2.91763C25.9138 2.75441 25.9785 2.59794 26.0937 2.48252C26.2088 2.36711 26.3649 2.30219 26.5277 2.302H53.726C53.8888 2.30219 54.0449 2.36711 54.16 2.48252C54.2752 2.59794 54.3399 2.75441 54.3401 2.91763V21.3882L54.3135 21.3996L40.602 27.2691C40.5199 27.3037 40.4317 27.3215 40.3427 27.3214Z" fill="white"/>
<path d="M40.3426 27.3653C40.2506 27.3654 40.1594 27.3475 40.0742 27.3126L25.8696 21.4046V2.91753C25.8698 2.74266 25.9392 2.575 26.0626 2.45135C26.1859 2.32769 26.3532 2.25813 26.5277 2.25793H53.7259C53.9003 2.25813 54.0676 2.32769 54.191 2.45135C54.3143 2.575 54.3837 2.74266 54.3839 2.91753V21.4171L40.6192 27.3095C40.5316 27.3464 40.4376 27.3654 40.3426 27.3653ZM26.0451 21.2871L40.1411 27.15C40.2726 27.2035 40.4198 27.2026 40.5506 27.1476L54.2084 21.301V2.91753C54.2083 2.78929 54.1574 2.66635 54.0669 2.57567C53.9765 2.48499 53.8538 2.43398 53.7259 2.43383H26.5277C26.3997 2.43398 26.2771 2.48499 26.1866 2.57567C26.0961 2.66635 26.0453 2.78929 26.0451 2.91753V21.2871Z" fill="#3F3D56"/>
<path d="M64.3859 17.033H64.3683L54.2962 21.3441L40.5155 27.2427C40.4616 27.2654 40.4039 27.2772 40.3454 27.2775C40.287 27.2778 40.2291 27.2666 40.175 27.2444L25.9574 21.3318L15.6378 17.04L15.6221 17.033H15.6045C15.4417 17.0331 15.2856 17.0981 15.1704 17.2135C15.0553 17.3289 14.9905 17.4854 14.9904 17.6486V44.3843C14.9905 44.5475 15.0553 44.704 15.1704 44.8194C15.2856 44.9348 15.4417 44.9998 15.6045 44.9999H64.3859C64.5487 44.9998 64.7048 44.9348 64.8199 44.8194C64.9351 44.704 64.9998 44.5475 65 44.3843V17.6486C64.9998 17.4854 64.9351 17.3289 64.8199 17.2135C64.7048 17.0981 64.5487 17.0331 64.3859 17.033ZM64.8246 44.3843C64.8245 44.5009 64.7783 44.6127 64.696 44.6952C64.6138 44.7777 64.5022 44.824 64.3859 44.824H15.6045C15.4882 44.824 15.3766 44.7777 15.2944 44.6952C15.2121 44.6127 15.1659 44.5009 15.1658 44.3843V17.6486C15.166 17.5349 15.21 17.4256 15.2886 17.3437C15.3673 17.2617 15.4745 17.2134 15.5878 17.2089L25.9574 21.5217L40.1075 27.4071C40.2607 27.4696 40.4323 27.4686 40.5848 27.4045L54.2962 21.5349L64.4034 17.2089C64.5166 17.2137 64.6235 17.2622 64.7019 17.3441C64.7804 17.426 64.8243 17.5351 64.8246 17.6486V44.3843Z" fill="#3F3D56"/>
<path d="M38.1355 9.20146H28.4845C28.2983 9.20146 28.1198 9.12733 27.9882 8.99538C27.8565 8.86344 27.7826 8.68448 27.7826 8.49788C27.7826 8.31128 27.8565 8.13233 27.9882 8.00038C28.1198 7.86844 28.2983 7.79431 28.4845 7.79431H38.1355C38.3216 7.79431 38.5002 7.86844 38.6318 8.00038C38.7634 8.13233 38.8374 8.31128 38.8374 8.49788C38.8374 8.68448 38.7634 8.86344 38.6318 8.99538C38.5002 9.12733 38.3216 9.20146 38.1355 9.20146Z" fill="#EB4444"/>
<path d="M33.1345 6.21134H28.4845C28.2983 6.21134 28.1198 6.13722 27.9882 6.00527C27.8565 5.87333 27.7826 5.69437 27.7826 5.50777C27.7826 5.32117 27.8565 5.14222 27.9882 5.01027C28.1198 4.87833 28.2983 4.8042 28.4845 4.8042H33.1345C33.3207 4.8042 33.4992 4.87833 33.6308 5.01027C33.7624 5.14222 33.8364 5.32117 33.8364 5.50777C33.8364 5.69437 33.7624 5.87333 33.6308 6.00527C33.4992 6.13722 33.3207 6.21134 33.1345 6.21134Z" fill="#EB4444"/>
<path d="M47.345 16.2372H32.6053C32.4192 16.2372 32.2407 16.1631 32.109 16.0312C31.9774 15.8992 31.9034 15.7202 31.9034 15.5336C31.9034 15.3471 31.9774 15.1681 32.109 15.0361C32.2407 14.9042 32.4192 14.8301 32.6053 14.8301H47.345C47.5312 14.8301 47.7097 14.9042 47.8413 15.0361C47.973 15.1681 48.0469 15.3471 48.0469 15.5336C48.0469 15.7202 47.973 15.8992 47.8413 16.0312C47.7097 16.1631 47.5312 16.2372 47.345 16.2372Z" fill="#CCCCCC"/>
<path d="M47.345 19.4913H32.6053C32.4192 19.4913 32.2407 19.4171 32.109 19.2852C31.9774 19.1532 31.9034 18.9743 31.9034 18.7877C31.9034 18.6011 31.9774 18.4221 32.109 18.2902C32.2407 18.1582 32.4192 18.0841 32.6053 18.0841H47.345C47.5312 18.0841 47.7097 18.1582 47.8413 18.2902C47.973 18.4221 48.0469 18.6011 48.0469 18.7877C48.0469 18.9743 47.973 19.1532 47.8413 19.2852C47.7097 19.4171 47.5312 19.4913 47.345 19.4913Z" fill="#CCCCCC"/>
<path d="M3.59266 20.3137C3.50147 20.3135 3.41313 20.2818 3.3426 20.2239C3.27208 20.1659 3.22369 20.0853 3.20564 19.9957L2.8864 18.4004C2.71709 17.5543 2.89006 16.6753 3.36724 15.957C3.84443 15.2386 4.58675 14.7397 5.4309 14.57C6.27505 14.4003 7.15189 14.5737 7.86851 15.052C8.58514 15.5303 9.08285 16.2744 9.25216 17.1206L9.57132 18.7159C9.5918 18.8188 9.57072 18.9256 9.51272 19.0129C9.45472 19.1003 9.36452 19.161 9.26193 19.1817L3.67046 20.3059C3.64484 20.3111 3.61878 20.3137 3.59266 20.3137Z" fill="#2F2E41"/>
<path d="M13.5191 44.0664L12.5161 44.0663L12.0392 40.1882L13.5195 40.1883L13.5191 44.0664Z" fill="#A0616A"/>
<path d="M11.7996 43.7789H13.734V44.9998H10.5817C10.5817 44.676 10.71 44.3655 10.9384 44.1365C11.1668 43.9076 11.4766 43.7789 11.7996 43.7789Z" fill="#2F2E41"/>
<path d="M3.06801 44.0563L2.14441 43.6642L3.21374 39.9066L4.57681 40.4854L3.06801 44.0563Z" fill="#A0616A"/>
<path d="M1.59649 43.1196L3.3777 43.8758L2.9027 45L-2.57792e-05 43.7676C0.0623525 43.62 0.153128 43.4861 0.267119 43.3737C0.38111 43.2612 0.516085 43.1723 0.664335 43.1122C0.812585 43.052 0.971207 43.0217 1.13115 43.0229C1.29108 43.0242 1.44921 43.057 1.59649 43.1196Z" fill="#2F2E41"/>
<path d="M6.16112 19.914C7.35123 19.914 8.31601 18.9469 8.31601 17.7539C8.31601 16.561 7.35123 15.5939 6.16112 15.5939C4.971 15.5939 4.00623 16.561 4.00623 17.7539C4.00623 18.9469 4.971 19.914 6.16112 19.914Z" fill="#A0616A"/>
<path d="M6.2632 27.5803L6.24109 27.5084C5.65391 25.5951 5.04697 23.6176 4.43918 21.7368L4.42273 21.6861L4.46009 21.648C5.40351 20.686 7.17089 20.3023 8.57129 20.7557C9.98068 21.2118 10.9519 22.491 10.8305 23.7314C10.7659 24.4765 10.9656 25.2206 11.3945 25.8327L11.4507 25.9144L11.3628 25.9605C9.7884 26.7726 8.09013 27.3164 6.3376 27.5695L6.2632 27.5803Z" fill="#3F3D56"/>
<path d="M3.66425 43.3594C3.58741 43.3593 3.51196 43.3388 3.44549 43.3002L2.28146 42.6263C2.18598 42.5717 2.11458 42.483 2.08155 42.3779C2.04853 42.2728 2.05631 42.159 2.10333 42.0594L4.68986 35.9074L6.66662 26.9347L10.2691 25.6216L10.3019 25.6367C14.1642 27.4151 13.8656 40.1624 13.7666 42.6997C13.7621 42.8064 13.7191 42.9079 13.6455 42.9852C13.5719 43.0625 13.4728 43.1103 13.3666 43.1198L12.2833 43.2616C12.1732 43.2714 12.0634 43.2394 11.9756 43.1721C11.8878 43.1048 11.8282 43.0069 11.8088 42.8978L9.59718 32.9903C9.59495 32.9715 9.58673 32.9539 9.57373 32.9401C9.56072 32.9264 9.54364 32.9172 9.52502 32.9139C9.50717 32.9105 9.48869 32.9128 9.47225 32.9206C9.45581 32.9284 9.44227 32.9412 9.43358 32.9572L4.04786 43.1339C4.01949 43.185 3.9812 43.2299 3.93525 43.2659C3.88929 43.3019 3.83661 43.3284 3.78031 43.3437C3.74249 43.354 3.70346 43.3593 3.66425 43.3594Z" fill="#2F2E41"/>
<path d="M4.95813 34.318C5.02615 34.2186 5.0716 34.1054 5.09127 33.9865C5.11095 33.8675 5.10436 33.7457 5.07199 33.6296C5.03961 33.5135 4.98224 33.4059 4.90389 33.3144C4.82555 33.223 4.72815 33.1498 4.61856 33.1001L4.67747 31.2166L3.54428 30.9015L3.49836 33.5627C3.42733 33.7527 3.42832 33.9623 3.50116 34.1517C3.57399 34.3411 3.71361 34.4972 3.89354 34.5903C4.07348 34.6834 4.28123 34.7071 4.47744 34.6569C4.67365 34.6067 4.84469 34.4861 4.95813 34.318H4.95813Z" fill="#A0616A"/>
<path d="M3.51508 32.327L3.44857 32.3267C3.33896 32.3259 3.23364 32.2838 3.15359 32.2087C3.07355 32.1337 3.02465 32.0311 3.01664 31.9215C2.90796 30.5187 2.57419 25.7401 2.84299 23.1493C2.8786 22.9076 2.96227 22.6754 3.08902 22.4667C3.21578 22.2579 3.38305 22.0768 3.58093 21.934C3.77881 21.7912 4.00326 21.6897 4.24099 21.6355C4.47872 21.5813 4.72489 21.5754 4.96492 21.6183L5.0341 21.6336L5.03359 21.7047C5.00896 25.1134 5.01054 28.5021 5.01208 31.7793C5.01233 31.8794 4.9785 31.9765 4.9162 32.0547C4.85391 32.1329 4.76686 32.1874 4.66945 32.2093C4.2897 32.2881 3.90288 32.3275 3.51508 32.327Z" fill="#EB4444"/>
<path d="M6.09467 36.415C5.80459 36.4138 5.52493 36.3065 5.30813 36.1133C5.09132 35.9201 4.95225 35.6543 4.917 35.3657L5.01243 27.4987L3.45257 23.5438C3.38692 23.0243 3.49841 22.4977 3.76893 22.0497C4.03944 21.6016 4.4531 21.2584 4.94273 21.0757L5.35974 20.919C5.43853 20.8893 5.52239 20.8756 5.60649 20.8786C5.69059 20.8815 5.77329 20.9011 5.84983 20.9361C5.92637 20.9712 5.99525 21.0211 6.05252 21.0829C6.10979 21.1447 6.15431 21.2172 6.18355 21.2963L7.792 25.6495L7.7924 25.6558C7.90394 27.3884 8.40731 36.0114 7.40367 36.2687C6.97841 36.3685 6.54285 36.4176 6.10607 36.4149L6.09467 36.415Z" fill="#EB4444"/>
<path d="M15.3612 31.3479C15.2497 31.3026 15.1496 31.2333 15.0677 31.145C14.9858 31.0567 14.9243 30.9514 14.8874 30.8367C14.8505 30.7219 14.8392 30.6005 14.8542 30.4808C14.8692 30.3612 14.9102 30.2464 14.9742 30.1443L13.8885 28.6058L14.6604 27.7164L16.1631 29.9107C16.327 30.03 16.4415 30.2053 16.4849 30.4036C16.5284 30.6018 16.4978 30.8092 16.399 30.9863C16.3001 31.1635 16.1399 31.2981 15.9486 31.3648C15.7574 31.4314 15.5483 31.4254 15.3612 31.3479H15.3612Z" fill="#A0616A"/>
<path d="M14.277 29.3707C14.2203 29.369 14.1648 29.3537 14.1152 29.326C14.0657 29.2984 14.0235 29.2592 13.9922 29.2118L13.9864 29.2031C12.19 26.4776 10.3325 23.6594 8.44983 20.8499L8.42957 20.8196L8.45547 20.794C8.6206 20.6395 8.81519 20.5201 9.02755 20.4429C9.2399 20.3657 9.46563 20.3324 9.69117 20.3448C9.92336 20.3491 10.1521 20.4024 10.3623 20.5012C10.5725 20.6001 10.7596 20.7423 10.9113 20.9185C12.5565 22.9251 14.9045 27.0897 15.5849 28.3183C15.6279 28.3946 15.6406 28.4843 15.6205 28.5696C15.6005 28.6549 15.5491 28.7294 15.4767 28.7784C15.1426 29.0064 14.7847 29.1973 14.4093 29.3476C14.3672 29.3642 14.3222 29.372 14.277 29.3707Z" fill="#EB4444"/>
<path d="M13.6739 34.6617C12.5978 34.6624 8.748 27.2317 7.98719 25.7421L7.98061 25.7241L7.13897 21.166C7.12365 21.0831 7.12483 20.9979 7.14243 20.9154C7.16003 20.8329 7.19371 20.7547 7.24153 20.6853C7.28936 20.6159 7.35039 20.5567 7.42112 20.511C7.49185 20.4653 7.57089 20.434 7.6537 20.419L8.09203 20.3396C8.60592 20.2452 9.13656 20.3276 9.5978 20.5736C10.059 20.8196 10.4238 21.2146 10.6329 21.6945L11.7326 26.3282L15.4099 32.5911C15.5307 32.8594 15.5484 33.1629 15.4597 33.4435C15.3711 33.7242 15.1822 33.9621 14.9294 34.1118C14.5556 34.3384 14.1564 34.5199 13.7401 34.6524C13.7185 34.6586 13.6962 34.6618 13.6738 34.6617H13.6739Z" fill="#EB4444"/>
<path d="M7.83477 17.7726H3.49182V17.2449C3.49248 16.662 3.72378 16.1031 4.13498 15.691C4.54618 15.2788 5.1037 15.0469 5.68523 15.0463H6.03617C6.6177 15.0469 7.17522 15.2788 7.58643 15.691C7.99763 16.1031 8.22892 16.662 8.22958 17.2449V17.3768C8.22946 17.4818 8.18783 17.5824 8.11381 17.6566C8.0398 17.7308 7.93944 17.7725 7.83477 17.7726Z" fill="#2F2E41"/>
</g>
<defs>
<clipPath id="clip0_63_224">
<rect width="65" height="45" fill="white"/>
</clipPath>
</defs>
</svg>
