<svg width="21" height="19" viewBox="0 0 21 19" fill="none" xmlns="http://www.w3.org/2000/svg">
<path d="M17.5653 0.628293L16.2217 1.88749L10.5013 6.98725L4.78086 1.83712L3.43734 0.577925C3.12083 0.263812 2.73446 0.0680003 2.32609 0.0147488C1.91773 -0.0385027 1.50531 0.0531465 1.13994 0.278342C0.774562 0.503537 0.472289 0.852382 0.270566 1.28166C0.0688428 1.71094 -0.0234665 2.20178 0.00507429 2.69338V17.2875C0.00507429 17.7417 0.15547 18.1773 0.423176 18.4984C0.690881 18.8196 1.05397 19 1.43256 19H4.78086V9.27899L10.5013 14.4291L16.2217 9.27899V19H19.57C19.9486 19 20.3117 18.8196 20.5794 18.4984C20.8471 18.1773 20.9975 17.7417 20.9975 17.2875V2.69338C21.0172 2.20602 20.9185 1.72229 20.7133 1.30099C20.5082 0.879681 20.2054 0.538948 19.8419 0.320206C19.4783 0.101463 19.0696 0.0141309 18.6654 0.068825C18.2613 0.123519 17.8791 0.317884 17.5653 0.628293Z" fill="white"/>
</svg>
