<svg width="25" height="20" viewBox="0 0 25 20" fill="none" xmlns="http://www.w3.org/2000/svg">
<path d="M24.75 0H0.25C0.1125 0 0 0.102273 0 0.227273V2.04545C0 2.17045 0.1125 2.27273 0.25 2.27273H24.75C24.8875 2.27273 25 2.17045 25 2.04545V0.227273C25 0.102273 24.8875 0 24.75 0ZM24.75 17.7273H0.25C0.1125 17.7273 0 17.8295 0 17.9545V19.7727C0 19.8977 0.1125 20 0.25 20H24.75C24.8875 20 25 19.8977 25 19.7727V17.9545C25 17.8295 24.8875 17.7273 24.75 17.7273ZM24.75 8.86364H0.25C0.1125 8.86364 0 8.96591 0 9.09091V10.9091C0 11.0341 0.1125 11.1364 0.25 11.1364H24.75C24.8875 11.1364 25 11.0341 25 10.9091V9.09091C25 8.96591 24.8875 8.86364 24.75 8.86364Z" fill="#F8F8F8"/>
</svg>
