<svg width="24" height="24" viewBox="0 0 24 24" fill="none" xmlns="http://www.w3.org/2000/svg">
<path d="M7.5 15C7.08333 15 6.72933 14.854 6.438 14.562C6.146 14.2707 6 13.9167 6 13.5V12.5H7.5V13.5H9V9H10.5V13.5C10.5 13.9167 10.354 14.2707 10.062 14.562C9.77067 14.854 9.41667 15 9 15H7.5ZM13 15C12.7167 15 12.4793 14.904 12.288 14.712C12.096 14.5207 12 14.2833 12 14V13H13.5V13.5H15.5V12.5H13C12.7167 12.5 12.4793 12.404 12.288 12.212C12.096 12.0207 12 11.7833 12 11.5V10C12 9.71667 12.096 9.479 12.288 9.287C12.4793 9.09567 12.7167 9 13 9H16C16.2833 9 16.5207 9.09567 16.712 9.287C16.904 9.479 17 9.71667 17 10V11H15.5V10.5H13.5V11.5H16C16.2833 11.5 16.5207 11.5957 16.712 11.787C16.904 11.979 17 12.2167 17 12.5V14C17 14.2833 16.904 14.5207 16.712 14.712C16.5207 14.904 16.2833 15 16 15H13Z" fill="#FFD233"/>
<rect x="0.1" y="0.1" width="23.8" height="23.8" stroke="#EAE6E0" stroke-width="0.2"/>
</svg>
