<svg width="23" height="23" viewBox="0 0 23 23" fill="none" xmlns="http://www.w3.org/2000/svg">
<rect width="23" height="23" rx="3" fill="white"/>
<path fill-rule="evenodd" clip-rule="evenodd" d="M21.1188 21.0833H17.1398V14.858C17.1398 13.3726 17.1149 11.4636 15.0727 11.4636C13.0027 11.4636 12.6864 13.0813 12.6864 14.7507V21.0833H8.71127V8.28H12.5254V10.0309H12.581C13.111 9.02463 14.4095 7.96279 16.3454 7.96279C20.3742 7.96279 21.1179 10.6135 21.1179 14.0616V21.0833H21.1188ZM4.22531 6.532C3.92207 6.53225 3.62175 6.47271 3.34154 6.35678C3.06133 6.24085 2.80673 6.07081 2.59231 5.85638C2.37788 5.64196 2.20784 5.38736 2.09191 5.10715C1.97598 4.82694 1.91644 4.52662 1.91669 4.22338C1.91669 3.76704 2.05198 3.32096 2.30547 2.9415C2.55895 2.56205 2.91925 2.26627 3.34081 2.09155C3.76237 1.91684 4.22626 1.87102 4.67385 1.95991C5.12144 2.0488 5.53263 2.26839 5.85544 2.59093C6.17825 2.91347 6.39819 3.32448 6.48745 3.772C6.5767 4.21952 6.53128 4.68345 6.35691 5.10515C6.18254 5.52686 5.88706 5.8874 5.50782 6.1412C5.12858 6.395 4.6826 6.53066 4.22627 6.53104L4.22531 6.532ZM6.21577 21.0833H2.23294V8.28H6.21577V21.0833Z" fill="#0A192F"/>
</svg>
